<svg xmlns="http://www.w3.org/2000/svg" version="1.1" width="96" height="96" viewbox="0 0 96 96"><rect x="0" y="0" width="96" height="96" fill="#FFFFFF"></rect><g transform="translate(33.48, 60)"><path d="M6.1 7.54L5.66 7.78Q6.96 8.06 7.06 8.06L7.06 8.06Q8.16 8.06 8.98 6.05L8.98 6.05Q9.55 4.46 12.48-11.04L12.48-11.04Q13.82-18.29 13.87-18.34L13.87-18.34 13.87-18.48 11.62-18.48Q9.36-18.48 9.22-18.58L9.22-18.58Q8.88-18.77 9.12-19.63L9.12-19.63Q9.31-20.35 9.36-20.4L9.36-20.4Q9.46-20.64 9.79-20.66 10.13-20.69 12-20.69L12-20.69Q14.3-20.69 14.3-20.74L14.3-20.74Q14.3-20.83 14.74-23.14 15.17-25.44 15.31-25.92L15.31-25.92Q16.32-30.48 18.34-32.26L18.34-32.26Q20.26-33.84 22.32-33.84L22.32-33.84Q24.05-33.74 25.22-32.78 26.4-31.82 26.4-30.24L26.4-30.24Q26.4-28.85 25.54-27.89 24.67-26.93 23.38-26.93L23.38-26.93Q21.26-26.93 21.26-28.94L21.26-28.94Q21.26-30.72 22.94-31.54L22.94-31.54 23.38-31.78Q22.51-32.06 21.94-32.06L21.94-32.06Q20.54-32.06 20.11-30.24L20.11-30.24Q19.73-28.8 18.86-23.95L18.86-23.95 18.24-20.78Q18.24-20.69 20.88-20.69L20.88-20.69Q23.04-20.69 23.47-20.64 23.9-20.59 23.9-20.3L23.9-20.3Q23.9-19.78 23.57-18.77L23.57-18.77Q23.47-18.53 23.11-18.5 22.75-18.48 20.54-18.48L20.54-18.48 17.86-18.48 16.75-12.62Q14.98-3.46 14.54-1.54L14.54-1.54Q12.91 5.71 10.18 8.3L10.18 8.3Q8.4 9.84 6.67 9.84 4.94 9.84 3.79 8.88 2.64 7.92 2.64 6.34L2.64 6.34Q2.64 4.9 3.5 3.91 4.37 2.93 5.66 2.93L5.66 2.93Q7.78 2.93 7.78 4.94L7.78 4.94Q7.78 6.72 6.1 7.54L6.1 7.54Z" fill="#404040"></path></g></svg>